<?xml version="1.0" standalone="no"?>
<!DOCTYPE svg PUBLIC "-//W3C//DTD SVG 20010904//EN"
 "http://www.w3.org/TR/2001/REC-SVG-20010904/DTD/svg10.dtd">
<svg version="1.0" xmlns="http://www.w3.org/2000/svg"
 width="228.000000pt" height="220.000000pt" viewBox="0 0 228.000000 220.000000"
 preserveAspectRatio="xMidYMid meet">
<metadata>
Created by potrace 1.10, written by Peter Selinger 2001-2011
</metadata>
<g transform="translate(0.000000,220.000000) scale(0.100000,-0.100000)"
fill="#000000" stroke="none">
<path d="M709 1972 c-49 -26 -121 -101 -128 -135 -2 -7 -5 -97 -8 -202 -2
-104 -5 -191 -6 -192 -2 -1 -31 -3 -66 -4 -75 -3 -143 -32 -188 -82 -27 -29
-36 -46 -52 -87 -3 -8 -5 -204 -6 -435 l0 -421 33 -55 c30 -49 81 -91 132
-108 8 -3 326 -6 706 -8 l690 -3 51 25 c67 34 107 77 132 145 3 8 5 150 6 315
l0 301 -33 55 c-21 35 -48 63 -75 79 -51 29 -55 30 -137 37 -36 3 -66 6 -67 7
-1 1 -3 141 -5 312 l-3 310 -33 55 c-30 49 -82 92 -132 108 -8 3 -182 6 -386
8 l-372 3 -53 -28z m812 -14 c46 -13 106 -68 125 -114 11 -26 14 -100 14 -329
0 -350 -1 -345 87 -345 31 0 73 -5 95 -12 49 -15 115 -79 129 -127 6 -23 9
-142 7 -332 l-3 -297 -25 -34 c-14 -20 -40 -48 -59 -64 l-35 -29 -726 0 -726
0 -46 38 c-79 65 -78 60 -78 529 0 392 1 414 20 453 11 23 39 57 62 75 36 30
49 34 117 38 121 7 121 8 121 216 0 192 8 232 51 276 71 70 64 69 468 70 249
0 376 -4 402 -12z"/>
<path d="M762 1850 c-63 -39 -62 -21 -62 -760 0 -601 2 -673 16 -695 l16 -25
398 0 398 0 16 25 c15 23 16 88 14 708 -3 642 -4 685 -21 711 -35 53 -56 56
-414 56 -311 0 -330 -1 -361 -20z m743 -35 l25 -24 0 -696 0 -695 -400 0 -400
0 0 695 0 696 25 24 24 25 351 0 351 0 24 -25z"/>
<path d="M1075 1655 c-21 -20 -25 -34 -25 -80 l0 -55 -55 0 c-67 0 -105 -29
-105 -80 0 -51 38 -80 105 -80 l55 0 0 -55 c0 -67 29 -105 80 -105 51 0 80 38
80 105 l0 55 55 0 c67 0 105 29 105 80 0 51 -38 80 -105 80 l-55 0 0 55 c0 67
-29 105 -80 105 -19 0 -40 -9 -55 -25z m93 -17 c7 -7 12 -33 12 -58 0 -63 23
-87 85 -88 56 -1 75 -15 75 -52 0 -37 -15 -47 -80 -53 -65 -7 -80 -23 -80 -87
0 -53 -13 -70 -51 -70 -37 0 -53 24 -50 73 3 60 -24 87 -87 87 -54 0 -72 12
-72 50 0 38 18 50 72 50 64 0 90 27 86 88 -1 34 3 48 17 58 23 17 57 18 73 2z"/>
<path d="M915 1015 c-16 -15 -25 -36 -25 -55 0 -19 9 -40 25 -55 24 -25 26
-25 215 -25 189 0 191 0 215 25 16 15 25 36 25 55 0 19 -9 40 -25 55 -24 25
-26 25 -215 25 -189 0 -191 0 -215 -25z m413 -17 c7 -7 12 -24 12 -38 0 -14
-5 -31 -12 -38 -17 -17 -379 -17 -396 0 -15 15 -15 61 0 76 17 17 379 17 396
0z"/>
<path d="M915 695 c-16 -15 -25 -36 -25 -55 0 -19 9 -40 25 -55 24 -25 26 -25
215 -25 189 0 191 0 215 25 16 15 25 36 25 55 0 19 -9 40 -25 55 -24 25 -26
25 -215 25 -189 0 -191 0 -215 -25z m413 -17 c7 -7 12 -24 12 -38 0 -14 -5
-31 -12 -38 -17 -17 -379 -17 -396 0 -15 15 -15 61 0 76 17 17 379 17 396 0z"/>
<path d="M442 1290 c-60 -37 -62 -50 -62 -450 0 -400 2 -413 62 -450 20 -12
51 -20 79 -20 81 0 79 -15 79 473 0 412 -1 424 -20 445 -27 29 -92 30 -138 2z
m128 -450 l0 -440 -55 0 c-46 0 -60 4 -80 25 l-25 24 0 391 0 391 25 24 c20
21 34 25 80 25 l55 0 0 -440z"/>
<path d="M1679 1049 c-18 -18 -19 -37 -19 -324 0 -358 -1 -353 83 -353 64 -1
111 31 127 86 8 24 10 121 8 282 -3 265 -7 283 -60 311 -40 21 -117 20 -139
-2z m146 -34 l25 -24 0 -271 0 -271 -25 -24 c-20 -21 -34 -25 -80 -25 l-55 0
0 320 0 320 55 0 c46 0 60 -4 80 -25z"/>
</g>
</svg>
