<svg width="57" height="48" viewBox="0 0 57 48" fill="none" xmlns="http://www.w3.org/2000/svg">
<rect width="48" height="48" rx="8" fill="#BBF7D0"/>
<path d="M19 25H25V26.5H19V25Z" fill="black"/>
<path d="M19 21.75H28V23.25H19V21.75Z" fill="black"/>
<path d="M19 29H22.75V30.5H19V29Z" fill="black"/>
<path d="M30.6469 16.1246H28.4498V15.4164C28.4498 15.0407 28.2955 14.6805 28.0208 14.4149C27.7461 14.1492 27.3736 14 26.9851 14H21.1264C20.7379 14 20.3654 14.1492 20.0907 14.4149C19.816 14.6805 19.6617 15.0407 19.6617 15.4164V16.1246H17.4647C17.0762 16.1246 16.7037 16.2738 16.429 16.5395C16.1543 16.8051 16 17.1653 16 17.541V32.4132C16 32.7888 16.1543 33.1491 16.429 33.4147C16.7037 33.6804 17.0762 33.8296 17.4647 33.8296H30.6469C31.0353 33.8296 31.4079 33.6804 31.6825 33.4147C31.9572 33.1491 32.1115 32.7888 32.1115 32.4132V17.541C32.1115 17.1653 31.9572 16.8051 31.6825 16.5395C31.4079 16.2738 31.0353 16.1246 30.6469 16.1246ZM21.1264 15.4164H26.9851V18.2492H21.1264V15.4164ZM30.6469 32.4132H17.4647V17.541H19.6617V19.6656H28.4498V17.541H30.6469V32.4132Z" fill="black"/>
</svg>
